<svg version="1.1" viewBox="0.0 0.0 962.3989501312336 232.8005249343832" fill="none" stroke="none" stroke-linecap="square" stroke-miterlimit="10" xmlns:xlink="http://www.w3.org/1999/xlink" xmlns="http://www.w3.org/2000/svg"><clipPath id="p.0"><path d="m0 0l962.3989 0l0 232.80052l-962.3989 0l0 -232.80052z" clip-rule="nonzero"/></clipPath><g clip-path="url(#p.0)"><path fill="#000000" fill-opacity="0.0" d="m0 0l962.3989 0l0 232.80052l-962.3989 0z" fill-rule="evenodd"/><path fill="#000000" d="m543.2192 167.84514l36.472412 0l0 46.07875l-36.472412 0z" fill-rule="evenodd"/><path fill="#000000" fill-opacity="0.0" d="m-2.843832 -3.3490813l516.5039 0l0 239.49606l-516.5039 0z" fill-rule="evenodd"/><path fill="#000000" d="m31.855677 213.01093l0 -151.20312l36.71875 0l0 151.20312l-36.71875 0zm17.062498 -57.890625l0 -30.671883l78.1875 0l0 30.671883l-78.1875 0zm0 -60.906258l0 -32.40625l87.04688 0l0 32.40625l-87.04688 0zm110.809685 118.79688l0 -114.70313l32.828125 0l1.515625 37.375008l-6.484375 -7.125q2.59375 -9.296883 8.53125 -16.640633q5.9375 -7.34375 13.921875 -11.65625q8.0 -4.328125 17.078125 -4.328125q3.875 0 7.21875 0.65625q3.359375 0.640625 6.171875 1.515625l-9.515625 38.218758q-2.375 -1.5 -6.375 -2.46875q-3.984375 -0.984375 -8.3125 -0.984375q-4.75 0 -8.859375 1.625q-4.09375 1.625 -6.90625 4.65625q-2.796875 3.015625 -4.421875 7.125q-1.625 4.09375 -1.625 9.28125l0 57.453125l-34.765625 0zm135.85616 1.9375q-14.46875 0 -25.8125 -7.65625q-11.34375 -7.671875 -18.046875 -21.171875q-6.6875 -13.5 -6.6875 -30.5625q0 -17.5 6.6875 -30.890633q6.703125 -13.390625 18.359375 -21.0625q11.671875 -7.671875 26.578125 -7.671875q8.203125 0 15.0 2.390625q6.8125 2.375 12.0 6.59375q5.1875 4.203125 8.859375 9.71875q3.671875 5.5 5.40625 11.765625l-7.140625 -0.875l0 -27.21875l34.34375 0l0 114.70313l-34.984375 0l0 -27.640625l7.78125 -0.21875q-1.734375 6.046875 -5.625 11.453125q-3.890625 5.390625 -9.515625 9.5q-5.609375 4.09375 -12.515625 6.46875q-6.90625 2.375 -14.6875 2.375zm9.5 -29.15625q8.0 0 13.828125 -3.671875q5.828125 -3.671875 9.0625 -10.46875q3.25 -6.8125 3.25 -16.09375q0 -9.296875 -3.25 -16.09375q-3.234375 -6.8125 -9.0625 -10.578125q-5.828125 -3.7812576 -13.828125 -3.7812576q-7.765625 0 -13.5 3.7812576q-5.71875 3.765625 -8.96875 10.578125q-3.234375 6.796875 -3.234375 16.09375q0 9.28125 3.234375 16.09375q3.25 6.796875 8.96875 10.46875q5.734375 3.671875 13.5 3.671875zm140.82843 29.375q-16.625 0 -29.796875 -7.765625q-13.171875 -7.78125 -20.84375 -21.28125q-7.671875 -13.5 -7.671875 -30.5625q0 -17.0625 7.671875 -30.562508q7.671875 -13.5 20.84375 -21.28125q13.171875 -7.78125 29.796875 -7.78125q15.34375 0 28.1875 5.40625q12.859375 5.40625 20.421875 15.125l-18.796875 22.453133q-3.015625 -3.453125 -7.125 -6.46875q-4.109375 -3.03125 -9.078125 -4.7500076q-4.96875 -1.734375 -10.359375 -1.734375q-8.203125 0 -14.46875 3.7812576q-6.265625 3.78125 -9.734375 10.484375q-3.453125 6.6875 -3.453125 15.328125q0 8.203125 3.5625 14.90625q3.578125 6.6875 9.828125 10.578125q6.265625 3.890625 14.265625 3.890625q5.609375 0 10.359375 -1.40625q4.765625 -1.40625 8.75 -4.203125q4.0 -2.8125 7.453125 -6.921875l18.578125 22.6875q-7.34375 9.28125 -20.421875 14.6875q-13.0625 5.390625 -27.96875 5.390625z" fill-rule="nonzero"/><path fill="#000000" fill-opacity="0.0" d="m587.25854 -3.3490813l377.98425 0l0 239.49606l-377.98425 0z" fill-rule="evenodd"/><path fill="#000000" d="m681.10297 215.16718q-19.015625 0 -33.0625 -7.65625q-14.03125 -7.671875 -21.8125 -20.953125q-7.765625 -13.296875 -7.765625 -30.359375q0 -13.171875 4.3125 -24.1875q4.328125 -11.015633 12.09375 -19.109383q7.78125 -8.109375 18.46875 -12.53125q10.703125 -4.4375 23.4375 -4.4375q12.109375 0 22.140625 4.328125q10.046875 4.3125 17.390625 12.09375q7.34375 7.78125 11.234375 18.359383q3.890625 10.578125 3.453125 23.109375l-0.21875 9.296875l-91.359375 0l-4.96875 -19.453125l68.25 0l-3.671875 4.109375l0 -4.3125q-0.421875 -5.40625 -3.34375 -9.609375q-2.921875 -4.21875 -7.671875 -6.5937576q-4.75 -2.375 -10.796875 -2.375q-8.421875 0 -14.359375 3.3437576q-5.9375 3.34375 -8.96875 9.71875q-3.015625 6.375 -3.015625 15.65625q0 9.515625 3.984375 16.53125q4.0 7.015625 11.671875 10.90625q7.671875 3.890625 18.25 3.890625q7.34375 0 13.0625 -2.15625q5.734375 -2.171875 12.421875 -7.34375l16.203125 22.890625q-6.703125 5.828125 -14.265625 9.5q-7.546875 3.671875 -15.4375 5.5q-7.875 1.84375 -15.65625 1.84375zm122.247925 0q-16.625 0 -29.796875 -7.765625q-13.171875 -7.78125 -20.84375 -21.28125q-7.671875 -13.5 -7.671875 -30.5625q0 -17.0625 7.671875 -30.562508q7.671875 -13.5 20.84375 -21.28125q13.171875 -7.78125 29.796875 -7.78125q15.34375 0 28.1875 5.40625q12.859375 5.40625 20.421875 15.125l-18.796875 22.453133q-3.015625 -3.453125 -7.125 -6.46875q-4.109375 -3.03125 -9.078125 -4.7500076q-4.96875 -1.734375 -10.359375 -1.734375q-8.203125 0 -14.46875 3.7812576q-6.265625 3.78125 -9.734375 10.484375q-3.453125 6.6875 -3.453125 15.328125q0 8.203125 3.5625 14.90625q3.578125 6.6875 9.828125 10.578125q6.265625 3.890625 14.265625 3.890625q5.609375 0 10.359375 -1.40625q4.765625 -1.40625 8.75 -4.203125q4.0 -2.8125 7.453125 -6.921875l18.578125 22.6875q-7.34375 9.28125 -20.421875 14.6875q-13.0625 5.390625 -27.96875 5.390625zm76.90753 -2.15625l0 -143.64062l34.5625 0l0 143.64062l-34.5625 0zm-20.3125 -84.453125l0 -30.250008l77.109375 0l0 30.250008l-77.109375 0z" fill-rule="nonzero"/><path fill="#000000" d="m580.82416 138.59723l-8.511902 17.407227l1.6210938 -19.309021z" fill-rule="evenodd"/><path fill="#000000" d="m573.9384 136.69682l-8.511902 17.407242l1.6210938 -19.309036z" fill-rule="evenodd"/><path fill="#000000" d="m567.0527 134.79643l-8.511902 17.407227l1.6210938 -19.309021z" fill-rule="evenodd"/><path fill="#000000" d="m560.16693 132.89603l-8.511902 17.407242l1.6211548 -19.309036z" fill-rule="evenodd"/><path fill="#000000" d="m523.5516 54.348507l122.554565 33.73715l-8.392456 30.486816l-122.554565 -33.737152z" fill-rule="evenodd"/><path fill="#000000" d="m562.00305 84.14767l34.58618 9.520966l-12.664001 46.003517l-34.58612 -9.520966z" fill-rule="evenodd"/><path fill="#000000" d="m543.24414 167.84514l3.649475 -18.83464l3.6495361 18.83464z" fill-rule="evenodd"/><path fill="#000000" d="m550.5378 167.84514l3.6495361 -18.83464l3.6495361 18.83464z" fill-rule="evenodd"/><path fill="#000000" d="m557.8315 167.84514l3.6495361 -18.83464l3.649475 18.83464z" fill-rule="evenodd"/><path fill="#000000" d="m565.1251 167.84514l3.6495361 -18.83464l3.6495361 18.83464z" fill-rule="evenodd"/><path fill="#000000" d="m572.4188 167.84514l3.6495361 -18.83464l3.649475 18.83464z" fill-rule="evenodd"/><path fill="#000000" d="m583.9906 139.31645l-5.0078735 18.141724l1.5748291 -19.055115z" fill-rule="evenodd"/><path fill="#000000" d="m549.4056 129.95563l-5.0078735 18.141724l8.913391 -17.102356z" fill-rule="evenodd"/><path fill="#000000" fill-opacity="0.0" d="m543.24414 168.2231l36.472412 0" fill-rule="evenodd"/><path stroke="#000000" stroke-width="1.0" stroke-linejoin="round" stroke-linecap="butt" d="m543.24414 168.2231l36.472412 0" fill-rule="evenodd"/></g></svg>