<svg version="1.1" viewBox="0.0 0.0 479.83989501312334 482.496062992126" fill="none" stroke="none" stroke-linecap="square" stroke-miterlimit="10" xmlns:xlink="http://www.w3.org/1999/xlink" xmlns="http://www.w3.org/2000/svg"><clipPath id="p.0"><path d="m0 0l479.8399 0l0 482.49606l-479.8399 0l0 -482.49606z" clip-rule="nonzero"/></clipPath><g clip-path="url(#p.0)"><path fill="#000000" fill-opacity="0.0" d="m0 0l479.8399 0l0 482.49606l-479.8399 0z" fill-rule="evenodd"/><path fill="#b8cdf4" d="m0.04593176 0.48293963l479.74805 0l0 479.74802l-479.74805 0z" fill-rule="evenodd"/><path stroke="#b8cdf4" stroke-width="1.0" stroke-linejoin="round" stroke-linecap="butt" d="m0.04593176 0.48293963l479.74805 0l0 479.74802l-479.74805 0z" fill-rule="evenodd"/><path fill="#000000" fill-opacity="0.0" d="m32.740158 88.61811l414.36218 0l0 305.25986l-414.36218 0z" fill-rule="evenodd"/><path fill="#000000" d="m92.268585 143.6981l0 -26.40625l-9.984375 0l0 -7.1875l28.375 0l0 7.1875l-10.21875 0l0 26.40625l-8.171875 0zm23.330688 0l0 -35.515625l7.53125 0l0 15.21875l-1.53125 0.5625q0.53125 -1.71875 1.890625 -3.125q1.375 -1.421875 3.296875 -2.28125q1.921875 -0.875 4.03125 -0.875q2.875 0 4.84375 1.1875q1.96875 1.171875 2.96875 3.5q1.015625 2.3125 1.015625 5.6875l0 15.640625l-7.71875 0l0 -15.03125q0 -1.53125 -0.4375 -2.53125q-0.4375 -1.015625 -1.328125 -1.515625q-0.875 -0.5 -2.171875 -0.453125q-1.015625 0 -1.875 0.3125q-0.859375 0.3125 -1.484375 0.90625q-0.625 0.59375 -0.984375 1.375q-0.359375 0.765625 -0.359375 1.671875l0 15.265625l-3.796875 0q-1.34375 0 -2.3125 0q-0.953125 0 -1.578125 0zm30.917557 0l0 -25.484375l7.671875 0l0 25.484375l-7.671875 0zm3.84375 -30.53125q-2.171875 0 -3.390625 -1.03125q-1.21875 -1.03125 -1.21875 -2.953125q0 -1.71875 1.234375 -2.828125q1.25 -1.109375 3.375 -1.109375q2.15625 0 3.34375 1.03125q1.203125 1.03125 1.203125 2.90625q0 1.78125 -1.21875 2.890625q-1.21875 1.09375 -3.328125 1.09375zm19.624527 31.015625q-3.75 0 -6.609375 -1.203125q-2.84375 -1.203125 -4.53125 -3.21875l4.65625 -4.03125q1.5 1.484375 3.359375 2.1875q1.875 0.6875 3.5625 0.6875q0.671875 0 1.1875 -0.140625q0.53125 -0.140625 0.890625 -0.40625q0.359375 -0.265625 0.546875 -0.625q0.203125 -0.359375 0.203125 -0.84375q0 -0.953125 -0.859375 -1.484375q-0.4375 -0.234375 -1.453125 -0.5625q-1.0 -0.34375 -2.578125 -0.78125q-2.265625 -0.578125 -3.921875 -1.359375q-1.65625 -0.796875 -2.703125 -1.859375q-0.96875 -1.0 -1.5 -2.21875q-0.515625 -1.234375 -0.515625 -2.765625q0 -1.78125 0.828125 -3.21875q0.84375 -1.4375 2.25 -2.484375q1.421875 -1.0625 3.265625 -1.609375q1.859375 -0.5625 3.828125 -0.5625q2.109375 0 4.03125 0.484375q1.921875 0.46875 3.578125 1.34375q1.65625 0.859375 2.953125 2.0625l-4.03125 4.515625q-0.875 -0.828125 -1.953125 -1.46875q-1.078125 -0.65625 -2.234375 -1.03125q-1.140625 -0.390625 -2.109375 -0.390625q-0.71875 0 -1.28125 0.125q-0.546875 0.125 -0.9375 0.390625q-0.375 0.25 -0.5625 0.609375q-0.1875 0.359375 -0.1875 0.84375q0 0.484375 0.265625 0.921875q0.265625 0.421875 0.734375 0.71875q0.484375 0.28125 1.53125 0.640625q1.0625 0.359375 2.890625 0.890625q2.25 0.625 3.875 1.390625q1.640625 0.765625 2.609375 1.828125q0.765625 0.8125 1.140625 1.890625q0.390625 1.078125 0.390625 2.328125q0 2.453125 -1.375 4.34375q-1.359375 1.890625 -3.765625 2.984375q-2.390625 1.078125 -5.46875 1.078125zm30.963837 -0.484375l0 -25.484375l7.671875 0l0 25.484375l-7.671875 0zm3.84375 -30.53125q-2.171875 0 -3.390625 -1.03125q-1.21875 -1.03125 -1.21875 -2.953125q0 -1.71875 1.234375 -2.828125q1.25 -1.109375 3.375 -1.109375q2.15625 0 3.34375 1.03125q1.203125 1.03125 1.203125 2.90625q0 1.78125 -1.21875 2.890625q-1.21875 1.09375 -3.328125 1.09375zm19.624527 31.015625q-3.75 0 -6.609375 -1.203125q-2.84375 -1.203125 -4.53125 -3.21875l4.65625 -4.03125q1.5 1.484375 3.359375 2.1875q1.875 0.6875 3.5625 0.6875q0.671875 0 1.1875 -0.140625q0.53125 -0.140625 0.890625 -0.40625q0.359375 -0.265625 0.546875 -0.625q0.203125 -0.359375 0.203125 -0.84375q0 -0.953125 -0.859375 -1.484375q-0.4375 -0.234375 -1.453125 -0.5625q-1.0 -0.34375 -2.578125 -0.78125q-2.265625 -0.578125 -3.921875 -1.359375q-1.65625 -0.796875 -2.703125 -1.859375q-0.96875 -1.0 -1.5 -2.21875q-0.515625 -1.234375 -0.515625 -2.765625q0 -1.78125 0.828125 -3.21875q0.84375 -1.4375 2.25 -2.484375q1.421875 -1.0625 3.265625 -1.609375q1.859375 -0.5625 3.828125 -0.5625q2.109375 0 4.03125 0.484375q1.921875 0.46875 3.578125 1.34375q1.65625 0.859375 2.953125 2.0625l-4.03125 4.515625q-0.875 -0.828125 -1.953125 -1.46875q-1.078125 -0.65625 -2.234375 -1.03125q-1.140625 -0.390625 -2.109375 -0.390625q-0.71875 0 -1.28125 0.125q-0.546875 0.125 -0.9375 0.390625q-0.375 0.25 -0.5625 0.609375q-0.1875 0.359375 -0.1875 0.84375q0 0.484375 0.265625 0.921875q0.265625 0.421875 0.734375 0.71875q0.484375 0.28125 1.53125 0.640625q1.0625 0.359375 2.890625 0.890625q2.25 0.625 3.875 1.390625q1.640625 0.765625 2.609375 1.828125q0.765625 0.8125 1.140625 1.890625q0.390625 1.078125 0.390625 2.328125q0 2.453125 -1.375 4.34375q-1.359375 1.890625 -3.765625 2.984375q-2.390625 1.078125 -5.46875 1.078125zm36.08882 -0.484375l-8.39061 -25.484375l8.10936 0l4.703125 16.5625l-1.0 -0.203125l5.265625 -12.859375l4.515625 0l5.578125 12.90625l-1.109375 0.109375l4.703125 -16.515625l8.109375 0l-8.6875 25.484375l-5.65625 0l-5.53125 -13.6875l0.578125 0.109375l-5.515625 13.578125l-5.671875 0zm34.469574 0l0 -35.515625l7.53125 0l0 15.21875l-1.53125 0.5625q0.53125 -1.71875 1.890625 -3.125q1.375 -1.421875 3.296875 -2.28125q1.921875 -0.875 4.03125 -0.875q2.875 0 4.84375 1.1875q1.96875 1.171875 2.96875 3.5q1.015625 2.3125 1.015625 5.6875l0 15.640625l-7.71875 0l0 -15.03125q0 -1.53125 -0.4375 -2.53125q-0.4375 -1.015625 -1.328125 -1.515625q-0.875 -0.5 -2.171875 -0.453125q-1.015625 0 -1.875 0.3125q-0.859375 0.3125 -1.484375 0.90625q-0.625 0.59375 -0.984375 1.375q-0.359375 0.765625 -0.359375 1.671875l0 15.265625l-3.796875 0q-1.34375 0 -2.3125 0q-0.953125 0 -1.578125 0zm42.620667 0.484375q-4.21875 0 -7.34375 -1.703125q-3.109375 -1.703125 -4.84375 -4.65625q-1.734375 -2.953125 -1.734375 -6.75q0 -2.921875 0.953125 -5.375q0.96875 -2.453125 2.703125 -4.25q1.734375 -1.796875 4.109375 -2.78125q2.375 -0.984375 5.203125 -0.984375q2.6875 0 4.921875 0.96875q2.234375 0.953125 3.859375 2.6875q1.640625 1.71875 2.5 4.078125q0.859375 2.34375 0.765625 5.125l-0.046875 2.0625l-20.3125 0l-1.09375 -4.3125l15.171875 0l-0.828125 0.90625l0 -0.953125q-0.09375 -1.203125 -0.75 -2.140625q-0.640625 -0.9375 -1.703125 -1.453125q-1.046875 -0.53125 -2.390625 -0.53125q-1.875 0 -3.203125 0.75q-1.3125 0.734375 -1.984375 2.15625q-0.671875 1.40625 -0.671875 3.46875q0 2.109375 0.890625 3.671875q0.890625 1.5625 2.59375 2.4375q1.703125 0.859375 4.0625 0.859375q1.625 0 2.890625 -0.484375q1.28125 -0.484375 2.765625 -1.640625l3.59375 5.09375q-1.484375 1.296875 -3.171875 2.109375q-1.671875 0.8125 -3.421875 1.21875q-1.75 0.421875 -3.484375 0.421875zm15.987427 -0.484375l0 -25.484375l7.296875 0l0.34375 8.296875l-1.453125 -1.578125q0.578125 -2.0625 1.890625 -3.6875q1.328125 -1.640625 3.109375 -2.59375q1.78125 -0.96875 3.796875 -0.96875q0.859375 0 1.59375 0.140625q0.75 0.140625 1.375 0.34375l-2.109375 8.484375q-0.53125 -0.328125 -1.421875 -0.546875q-0.890625 -0.21875 -1.84375 -0.21875q-1.0625 0 -1.96875 0.359375q-0.90625 0.359375 -1.53125 1.03125q-0.625 0.671875 -0.984375 1.59375q-0.359375 0.90625 -0.359375 2.0625l0 12.765625l-7.734375 0zm32.924683 0.484375q-4.21875 0 -7.34375 -1.703125q-3.109375 -1.703125 -4.84375 -4.65625q-1.734375 -2.953125 -1.734375 -6.75q0 -2.921875 0.953125 -5.375q0.96875 -2.453125 2.703125 -4.25q1.734375 -1.796875 4.109375 -2.78125q2.375 -0.984375 5.203125 -0.984375q2.6875 0 4.921875 0.96875q2.234375 0.953125 3.859375 2.6875q1.640625 1.71875 2.5 4.078125q0.859375 2.34375 0.765625 5.125l-0.046875 2.0625l-20.3125 0l-1.09375 -4.3125l15.171875 0l-0.828125 0.90625l0 -0.953125q-0.09375 -1.203125 -0.75 -2.140625q-0.640625 -0.9375 -1.703125 -1.453125q-1.046875 -0.53125 -2.390625 -0.53125q-1.875 0 -3.203125 0.75q-1.3125 0.734375 -1.984375 2.15625q-0.671875 1.40625 -0.671875 3.46875q0 2.109375 0.890625 3.671875q0.890625 1.5625 2.59375 2.4375q1.703125 0.859375 4.0625 0.859375q1.625 0 2.890625 -0.484375q1.28125 -0.484375 2.765625 -1.640625l3.59375 5.09375q-1.484375 1.296875 -3.171875 2.109375q-1.671875 0.8125 -3.421875 1.21875q-1.75 0.421875 -3.484375 0.421875z" fill-rule="nonzero"/><path fill="#000000" d="m73.09253 201.2981l0 -31.921875l7.6875 0l0 31.921875l-7.6875 0zm-4.5 -18.765625l0 -6.71875l17.125 0l0 6.71875l-17.125 0zm21.49466 18.765625l0 -35.515625l7.53125 0l0 15.21875l-1.53125 0.5625q0.53125 -1.71875 1.890625 -3.125q1.375 -1.421875 3.296875 -2.28125q1.921875 -0.875 4.03125 -0.875q2.875 0 4.84375 1.1875q1.96875 1.171875 2.96875 3.5q1.015625 2.3125 1.015625 5.6875l0 15.640625l-7.71875 0l0 -15.03125q0 -1.53125 -0.4375 -2.53125q-0.4375 -1.015625 -1.328125 -1.515625q-0.875 -0.5 -2.171875 -0.453125q-1.015625 0 -1.875 0.3125q-0.859375 0.3125 -1.484375 0.90625q-0.625 0.59375 -0.984375 1.375q-0.359375 0.765625 -0.359375 1.671875l0 15.265625l-3.796875 0q-1.34375 0 -2.3125 0q-0.953125 0 -1.578125 0zm42.62068 0.484375q-4.21875 0 -7.34375 -1.703125q-3.109375 -1.703125 -4.84375 -4.65625q-1.734375 -2.953125 -1.734375 -6.75q0 -2.921875 0.953125 -5.375q0.96875 -2.453125 2.703125 -4.25q1.734375 -1.796875 4.109375 -2.78125q2.375 -0.984375 5.203125 -0.984375q2.6875 0 4.921875 0.96875q2.234375 0.953125 3.859375 2.6875q1.640625 1.71875 2.5 4.078125q0.859375 2.34375 0.765625 5.125l-0.046875 2.0625l-20.3125 0l-1.09375 -4.3125l15.171875 0l-0.828125 0.90625l0 -0.953125q-0.09375 -1.203125 -0.75 -2.140625q-0.640625 -0.9375 -1.703125 -1.453125q-1.046875 -0.53125 -2.390625 -0.53125q-1.875 0 -3.203125 0.75q-1.3125 0.734375 -1.984375 2.15625q-0.671875 1.40625 -0.671875 3.46875q0 2.109375 0.890625 3.671875q0.890625 1.5625 2.59375 2.4375q1.703125 0.859375 4.0625 0.859375q1.625 0 2.890625 -0.484375q1.28125 -0.484375 2.765625 -1.640625l3.59375 5.09375q-1.484375 1.296875 -3.171875 2.109375q-1.671875 0.8125 -3.421875 1.21875q-1.75 0.421875 -3.484375 0.421875zm47.769333 0q-4.03125 0 -7.296875 -1.296875q-3.265625 -1.296875 -5.625 -3.640625q-2.34375 -2.359375 -3.59375 -5.546875q-1.25 -3.203125 -1.25 -6.9375q0 -3.75 1.3125 -6.890625q1.328125 -3.140625 3.765625 -5.5q2.453125 -2.359375 5.78125 -3.640625q3.34375 -1.296875 7.28125 -1.296875q2.78125 0 5.25 0.71875q2.484375 0.71875 4.5 1.96875q2.015625 1.234375 3.40625 2.875l-4.9375 5.234375q-1.203125 -1.15625 -2.484375 -1.921875q-1.265625 -0.765625 -2.703125 -1.21875q-1.4375 -0.46875 -3.078125 -0.46875q-2.109375 0 -3.859375 0.78125q-1.75 0.765625 -3.078125 2.140625q-1.3125 1.359375 -2.03125 3.203125q-0.71875 1.84375 -0.71875 4.015625q0 2.15625 0.765625 4.03125q0.765625 1.859375 2.109375 3.234375q1.34375 1.375 3.1875 2.171875q1.859375 0.78125 3.96875 0.78125q1.484375 0 2.796875 -0.484375q1.328125 -0.484375 2.28125 -1.296875q0.96875 -0.8125 1.546875 -1.9375q0.578125 -1.125 0.578125 -2.421875l0 -1.25l1.046875 1.625l-9.265625 0l0 -6.375l15.796875 0q0.09375 0.515625 0.140625 1.4375q0.046875 0.90625 0.0625 1.78125q0.03125 0.859375 0.03125 1.28125q0 3.265625 -1.171875 5.984375q-1.171875 2.71875 -3.296875 4.6875q-2.109375 1.953125 -4.984375 3.0625q-2.875 1.109375 -6.234375 1.109375zm21.114197 -0.484375l0 -25.484375l7.296875 0l0.34375 8.296875l-1.453125 -1.578125q0.578125 -2.0625 1.890625 -3.6875q1.328125 -1.640625 3.109375 -2.59375q1.78125 -0.96875 3.796875 -0.96875q0.859375 0 1.59375 0.140625q0.75 0.140625 1.375 0.34375l-2.109375 8.484375q-0.53125 -0.328125 -1.421875 -0.546875q-0.890625 -0.21875 -1.84375 -0.21875q-1.0625 0 -1.96875 0.359375q-0.90625 0.359375 -1.53125 1.03125q-0.625 0.671875 -0.984375 1.59375q-0.359375 0.90625 -0.359375 2.0625l0 12.765625l-7.734375 0zm30.190292 0.4375q-3.21875 0 -5.734375 -1.703125q-2.515625 -1.703125 -4.015625 -4.703125q-1.484375 -3.0 -1.484375 -6.796875q0 -3.890625 1.484375 -6.859375q1.5 -2.984375 4.09375 -4.6875q2.59375 -1.703125 5.90625 -1.703125q1.8125 0 3.328125 0.53125q1.515625 0.53125 2.65625 1.46875q1.15625 0.921875 1.96875 2.15625q0.828125 1.21875 1.203125 2.609375l-1.578125 -0.1875l0 -6.046875l7.625 0l0 25.484375l-7.765625 0l0 -6.140625l1.71875 -0.046875q-0.375 1.34375 -1.25 2.546875q-0.859375 1.1875 -2.109375 2.109375q-1.25 0.90625 -2.78125 1.4375q-1.53125 0.53125 -3.265625 0.53125zm2.109375 -6.484375q1.78125 0 3.078125 -0.8125q1.296875 -0.828125 2.015625 -2.328125q0.71875 -1.515625 0.71875 -3.578125q0 -2.0625 -0.71875 -3.578125q-0.71875 -1.515625 -2.015625 -2.34375q-1.296875 -0.84375 -3.078125 -0.84375q-1.71875 0 -3.0 0.84375q-1.265625 0.828125 -1.984375 2.34375q-0.71875 1.515625 -0.71875 3.578125q0 2.0625 0.71875 3.578125q0.71875 1.5 1.984375 2.328125q1.28125 0.8125 3.0 0.8125zm29.77269 6.578125q-3.3125 0 -5.890625 -1.703125q-2.5625 -1.703125 -4.0625 -4.703125q-1.484375 -3.0 -1.484375 -6.84375q0 -3.84375 1.484375 -6.84375q1.5 -3.0 4.09375 -4.71875q2.59375 -1.734375 5.953125 -1.734375q1.71875 0 3.296875 0.53125q1.59375 0.53125 2.890625 1.4375q1.296875 0.90625 2.109375 2.09375q0.8125 1.171875 0.96875 2.421875l-1.828125 0.421875l0 -16.40625l7.71875 0l0 35.515625l-7.140625 0l-0.4375 -5.8125l1.53125 0.25q-0.140625 1.1875 -0.9375 2.296875q-0.78125 1.109375 -2.03125 1.953125q-1.25 0.828125 -2.859375 1.328125q-1.609375 0.515625 -3.375 0.515625zm1.96875 -6.390625q1.765625 0 3.0625 -0.859375q1.296875 -0.859375 1.984375 -2.390625q0.703125 -1.546875 0.703125 -3.609375q0 -2.109375 -0.703125 -3.640625q-0.6875 -1.546875 -1.984375 -2.40625q-1.296875 -0.859375 -3.0625 -0.859375q-1.78125 0 -3.0625 0.859375q-1.265625 0.859375 -1.984375 2.40625q-0.71875 1.53125 -0.71875 3.640625q0 2.0625 0.71875 3.609375q0.71875 1.53125 1.984375 2.390625q1.28125 0.859375 3.0625 0.859375zm18.813934 -4.40625l0 -7.0625l16.609375 0l0 7.0625l-16.609375 0zm38.53528 10.75q-3.78125 0 -6.984375 -1.265625q-3.1875 -1.28125 -5.546875 -3.609375q-2.34375 -2.328125 -3.625 -5.515625q-1.265625 -3.203125 -1.265625 -7.03125q0 -3.75 1.34375 -6.921875q1.34375 -3.171875 3.71875 -5.5q2.375 -2.328125 5.609375 -3.609375q3.25 -1.296875 7.09375 -1.296875q2.390625 0 4.6875 0.625q2.3125 0.609375 4.296875 1.84375q2.0 1.21875 3.4375 2.90625l-4.984375 5.703125q-1.015625 -1.046875 -2.140625 -1.84375q-1.125 -0.796875 -2.46875 -1.21875q-1.34375 -0.4375 -2.875 -0.4375q-1.921875 0 -3.625 0.703125q-1.703125 0.6875 -2.984375 1.96875q-1.265625 1.265625 -1.984375 3.09375q-0.71875 1.8125 -0.71875 4.078125q0 2.203125 0.71875 4.0q0.71875 1.796875 2.015625 3.09375q1.296875 1.296875 3.140625 1.96875q1.84375 0.671875 4.109375 0.671875q1.53125 0 2.921875 -0.421875q1.390625 -0.4375 2.5625 -1.171875q1.1875 -0.75 2.09375 -1.71875l3.9375 6.25q-1.203125 1.34375 -3.203125 2.40625q-1.984375 1.046875 -4.40625 1.65625q-2.421875 0.59375 -4.875 0.59375zm13.780823 -0.484375l13.296875 -33.59375l6.90625 0l13.203125 33.59375l-8.25 0l-6.34375 -17.046875q-0.375 -1.0 -0.765625 -2.15625q-0.390625 -1.15625 -0.78125 -2.375q-0.375 -1.21875 -0.734375 -2.390625q-0.359375 -1.1875 -0.59375 -2.1875l1.4375 -0.046875q-0.28125 1.1875 -0.65625 2.34375q-0.359375 1.15625 -0.71875 2.28125q-0.359375 1.125 -0.796875 2.265625q-0.421875 1.125 -0.796875 2.328125l-6.34375 16.984375l-8.0625 0zm6.328125 -6.4375l2.546875 -6.140625l15.453125 0l2.5 6.140625l-20.5 0zm31.249573 6.4375l0 -33.59375l7.296875 0l12.25 19.90625l-5.234375 -0.046875l12.375 -19.859375l7.015625 0l0 33.59375l-7.921875 0l0 -10.46875q0 -4.3125 0.21875 -7.765625q0.21875 -3.46875 0.734375 -6.875l0.921875 2.5l-9.3125 14.453125l-3.171875 0l-9.125 -14.359375l0.921875 -2.59375q0.53125 3.21875 0.734375 6.609375q0.21875 3.375 0.21875 8.03125l0 10.46875l-7.921875 0z" fill-rule="nonzero"/><path fill="#000000" d="m78.759186 258.8981l0 -25.484375l7.296875 0l0.34375 8.296875l-1.453125 -1.578125q0.578125 -2.0625 1.890625 -3.6875q1.328125 -1.640625 3.109375 -2.59375q1.78125 -0.96875 3.796875 -0.96875q0.859375 0 1.59375 0.140625q0.75 0.140625 1.375 0.34375l-2.109375 8.484375q-0.53125 -0.328125 -1.421875 -0.546875q-0.890625 -0.21875 -1.84375 -0.21875q-1.0625 0 -1.96875 0.359375q-0.90625 0.359375 -1.53125 1.03125q-0.625 0.671875 -0.984375 1.59375q-0.359375 0.90625 -0.359375 2.0625l0 12.765625l-7.734375 0zm32.924667 0.484375q-4.21875 0 -7.34375 -1.703125q-3.109375 -1.703125 -4.84375 -4.65625q-1.734375 -2.953125 -1.734375 -6.75q0 -2.921875 0.953125 -5.375q0.96875 -2.453125 2.703125 -4.25q1.734375 -1.796875 4.109375 -2.78125q2.375 -0.984375 5.203125 -0.984375q2.6875 0 4.921875 0.96875q2.234375 0.953125 3.859375 2.6875q1.640625 1.71875 2.5 4.078125q0.859375 2.34375 0.765625 5.125l-0.046875 2.0625l-20.3125 0l-1.09375 -4.3125l15.171875 0l-0.828125 0.90625l0 -0.953125q-0.09375 -1.203125 -0.75 -2.140625q-0.640625 -0.9375 -1.703125 -1.453125q-1.046875 -0.53125 -2.390625 -0.53125q-1.875 0 -3.203125 0.75q-1.3125 0.734375 -1.984375 2.15625q-0.671875 1.40625 -0.671875 3.46875q0 2.109375 0.890625 3.671875q0.890625 1.5625 2.59375 2.4375q1.703125 0.859375 4.0625 0.859375q1.625 0 2.890625 -0.484375q1.28125 -0.484375 2.765625 -1.640625l3.59375 5.09375q-1.484375 1.296875 -3.171875 2.109375q-1.671875 0.8125 -3.421875 1.21875q-1.75 0.421875 -3.484375 0.421875zm24.581177 0q-3.75 0 -6.609375 -1.203125q-2.84375 -1.203125 -4.53125 -3.21875l4.65625 -4.03125q1.5 1.484375 3.359375 2.1875q1.875 0.6875 3.5625 0.6875q0.671875 0 1.1875 -0.140625q0.53125 -0.140625 0.890625 -0.40625q0.359375 -0.265625 0.546875 -0.625q0.203125 -0.359375 0.203125 -0.84375q0 -0.953125 -0.859375 -1.484375q-0.4375 -0.234375 -1.453125 -0.5625q-1.0 -0.34375 -2.578125 -0.78125q-2.265625 -0.578125 -3.921875 -1.359375q-1.65625 -0.796875 -2.703125 -1.859375q-0.96875 -1.0 -1.5 -2.21875q-0.515625 -1.234375 -0.515625 -2.765625q0 -1.78125 0.828125 -3.21875q0.84375 -1.4375 2.25 -2.484375q1.421875 -1.0625 3.265625 -1.609375q1.859375 -0.5625 3.828125 -0.5625q2.109375 0 4.03125 0.484375q1.921875 0.46875 3.578125 1.34375q1.65625 0.859375 2.953125 2.0625l-4.03125 4.515625q-0.875 -0.828125 -1.953125 -1.46875q-1.078125 -0.65625 -2.234375 -1.03125q-1.140625 -0.390625 -2.109375 -0.390625q-0.71875 0 -1.28125 0.125q-0.546875 0.125 -0.9375 0.390625q-0.375 0.25 -0.5625 0.609375q-0.1875 0.359375 -0.1875 0.84375q0 0.484375 0.265625 0.921875q0.265625 0.421875 0.734375 0.71875q0.484375 0.28125 1.53125 0.640625q1.0625 0.359375 2.890625 0.890625q2.25 0.625 3.875 1.390625q1.640625 0.765625 2.609375 1.828125q0.765625 0.8125 1.140625 1.890625q0.390625 1.078125 0.390625 2.328125q0 2.453125 -1.375 4.34375q-1.359375 1.890625 -3.765625 2.984375q-2.390625 1.078125 -5.46875 1.078125zm23.853806 0.046875q-2.828125 0 -4.828125 -1.21875q-1.984375 -1.234375 -3.0625 -3.53125q-1.078125 -2.3125 -1.078125 -5.53125l0 -15.734375l7.71875 0l0 14.6875q0 1.53125 0.484375 2.640625q0.484375 1.09375 1.4375 1.703125q0.96875 0.59375 2.3125 0.59375q1.0 0 1.84375 -0.328125q0.84375 -0.34375 1.4375 -0.9375q0.59375 -0.609375 0.921875 -1.390625q0.34375 -0.796875 0.34375 -1.75l0 -15.21875l7.734375 0l0 25.484375l-7.25 0l-0.328125 -5.234375l1.4375 -0.578125q-0.578125 1.828125 -1.921875 3.25q-1.34375 1.40625 -3.21875 2.25q-1.875 0.84375 -3.984375 0.84375zm22.17543 -0.53125l0 -35.515625l7.6875 0l0 35.515625l-7.6875 0zm16.510529 0l0 -31.921875l7.6875 0l0 31.921875l-7.6875 0zm-4.5 -18.765625l0 -6.71875l17.125 0l0 6.71875l-17.125 0zm48.85469 19.25q-3.984375 0 -7.078125 -1.71875q-3.09375 -1.734375 -4.90625 -4.703125q-1.796875 -2.984375 -1.796875 -6.828125q0 -3.84375 1.796875 -6.8125q1.8125 -2.984375 4.90625 -4.703125q3.09375 -1.734375 7.078125 -1.734375q3.984375 0 7.078125 1.734375q3.09375 1.71875 4.875 4.703125q1.78125 2.96875 1.78125 6.8125q0 3.84375 -1.78125 6.828125q-1.78125 2.96875 -4.875 4.703125q-3.09375 1.71875 -7.078125 1.71875zm0 -6.625q1.734375 0 3.078125 -0.859375q1.34375 -0.875 2.109375 -2.359375q0.765625 -1.484375 0.71875 -3.40625q0.046875 -1.921875 -0.71875 -3.4375q-0.765625 -1.515625 -2.109375 -2.375q-1.34375 -0.859375 -3.078125 -0.859375q-1.71875 0 -3.09375 0.859375q-1.375 0.859375 -2.140625 2.375q-0.765625 1.515625 -0.71875 3.4375q-0.046875 1.921875 0.71875 3.40625q0.765625 1.484375 2.140625 2.359375q1.375 0.859375 3.09375 0.859375zm19.38617 6.140625l0 -26.734375q0 -2.5 1.078125 -4.515625q1.09375 -2.015625 3.03125 -3.1875q1.953125 -1.171875 4.53125 -1.171875q1.828125 0 3.359375 0.53125q1.546875 0.515625 2.75 1.484375l-2.21875 5.609375q-0.625 -0.328125 -1.203125 -0.515625q-0.5625 -0.203125 -1.046875 -0.203125q-0.859375 0 -1.4375 0.296875q-0.578125 0.28125 -0.84375 0.890625q-0.265625 0.59375 -0.265625 1.453125l0 26.0625l-3.84375 0q-1.296875 0 -2.28125 0q-0.984375 0 -1.609375 0zm-3.6875 -18.4375l0 -6.328125l16.65625 0l0 6.328125l-16.65625 0zm39.552216 29.484375l5.8125 -13.6875l0.09375 3.9375l-12.296875 -26.78125l8.6875 0l5.375 12.8125q0.4375 0.953125 0.8125 2.0625q0.390625 1.109375 0.59375 2.109375l-1.0625 0.625q0.28125 -0.71875 0.640625 -1.796875q0.359375 -1.078125 0.796875 -2.328125l4.703125 -13.484375l8.734375 0l-10.84375 25.484375l-4.421875 11.046875l-7.625 0zm38.06128 -10.5625q-3.984375 0 -7.078125 -1.71875q-3.09375 -1.734375 -4.90625 -4.703125q-1.796875 -2.984375 -1.796875 -6.828125q0 -3.84375 1.796875 -6.8125q1.8125 -2.984375 4.90625 -4.703125q3.09375 -1.734375 7.078125 -1.734375q3.984375 0 7.078125 1.734375q3.09375 1.71875 4.875 4.703125q1.78125 2.96875 1.78125 6.8125q0 3.84375 -1.78125 6.828125q-1.78125 2.96875 -4.875 4.703125q-3.09375 1.71875 -7.078125 1.71875zm0 -6.625q1.734375 0 3.078125 -0.859375q1.34375 -0.875 2.109375 -2.359375q0.765625 -1.484375 0.71875 -3.40625q0.046875 -1.921875 -0.71875 -3.4375q-0.765625 -1.515625 -2.109375 -2.375q-1.34375 -0.859375 -3.078125 -0.859375q-1.71875 0 -3.09375 0.859375q-1.375 0.859375 -2.140625 2.375q-0.765625 1.515625 -0.71875 3.4375q-0.046875 1.921875 0.71875 3.40625q0.765625 1.484375 2.140625 2.359375q1.375 0.859375 3.09375 0.859375zm27.455566 6.671875q-2.828125 0 -4.828125 -1.21875q-1.984375 -1.234375 -3.0625 -3.53125q-1.078125 -2.3125 -1.078125 -5.53125l0 -15.734375l7.71875 0l0 14.6875q0 1.53125 0.484375 2.640625q0.484375 1.09375 1.4375 1.703125q0.96875 0.59375 2.3125 0.59375q1.0 0 1.84375 -0.328125q0.84375 -0.34375 1.4375 -0.9375q0.59375 -0.609375 0.921875 -1.390625q0.34375 -0.796875 0.34375 -1.75l0 -15.21875l7.734375 0l0 25.484375l-7.25 0l-0.328125 -5.234375l1.4375 -0.578125q-0.578125 1.828125 -1.921875 3.25q-1.34375 1.40625 -3.21875 2.25q-1.875 0.84375 -3.984375 0.84375zm22.128601 -0.53125l0 -25.484375l7.296875 0l0.34375 8.296875l-1.453125 -1.578125q0.578125 -2.0625 1.890625 -3.6875q1.328125 -1.640625 3.109375 -2.59375q1.78125 -0.96875 3.796875 -0.96875q0.859375 0 1.59375 0.140625q0.75 0.140625 1.375 0.34375l-2.109375 8.484375q-0.53125 -0.328125 -1.421875 -0.546875q-0.890625 -0.21875 -1.84375 -0.21875q-1.0625 0 -1.96875 0.359375q-0.90625 0.359375 -1.53125 1.03125q-0.625 0.671875 -0.984375 1.59375q-0.359375 0.90625 -0.359375 2.0625l0 12.765625l-7.734375 0z" fill-rule="nonzero"/><path fill="#000000" d="m117.14078 316.4981l0 -25.484375l7.671875 0l0 25.484375l-7.671875 0zm3.84375 -30.53125q-2.171875 0 -3.390625 -1.03125q-1.21875 -1.03125 -1.21875 -2.953125q0 -1.71875 1.234375 -2.828125q1.25 -1.109375 3.375 -1.109375q2.15625 0 3.34375 1.03125q1.203125 1.03125 1.203125 2.90625q0 1.78125 -1.21875 2.890625q-1.21875 1.09375 -3.328125 1.09375zm10.983902 30.53125l0 -25.484375l7.296875 0l0.234375 4.609375l-1.0 0.046875q0.578125 -1.25 1.453125 -2.203125q0.890625 -0.96875 2.015625 -1.609375q1.140625 -0.65625 2.359375 -0.984375q1.21875 -0.34375 2.46875 -0.34375q1.875 0 3.40625 0.578125q1.546875 0.578125 2.6875 1.859375q1.15625 1.265625 1.828125 3.421875l-1.203125 -0.09375l0.390625 -0.765625q0.625 -1.15625 1.609375 -2.09375q0.984375 -0.9375 2.171875 -1.578125q1.203125 -0.65625 2.5 -0.984375q1.296875 -0.34375 2.5 -0.34375q3.03125 0 5.046875 1.1875q2.015625 1.171875 3.046875 3.53125q1.03125 2.34375 1.03125 5.703125l0 15.546875l-7.734375 0l0 -14.921875q0 -1.546875 -0.4375 -2.546875q-0.421875 -1.015625 -1.265625 -1.515625q-0.84375 -0.5 -2.078125 -0.5q-1.015625 0 -1.859375 0.34375q-0.84375 0.328125 -1.4375 0.90625q-0.59375 0.578125 -0.9375 1.34375q-0.328125 0.765625 -0.328125 1.71875l0 15.171875l-7.734375 0l0 -14.96875q0 -1.453125 -0.4375 -2.453125q-0.421875 -1.015625 -1.296875 -1.53125q-0.859375 -0.53125 -2.015625 -0.53125q-1.0 0 -1.84375 0.34375q-0.84375 0.328125 -1.4375 0.90625q-0.59375 0.578125 -0.9375 1.34375q-0.328125 0.765625 -0.328125 1.671875l0 15.21875l-7.734375 0zm55.62921 0.4375q-3.21875 0 -5.734375 -1.703125q-2.515625 -1.703125 -4.015625 -4.703125q-1.484375 -3.0 -1.484375 -6.796875q0 -3.890625 1.484375 -6.859375q1.5 -2.984375 4.09375 -4.6875q2.59375 -1.703125 5.90625 -1.703125q1.8125 0 3.328125 0.53125q1.515625 0.53125 2.65625 1.46875q1.15625 0.921875 1.96875 2.15625q0.828125 1.21875 1.203125 2.609375l-1.578125 -0.1875l0 -6.046875l7.625 0l0 25.484375l-7.765625 0l0 -6.140625l1.71875 -0.046875q-0.375 1.34375 -1.25 2.546875q-0.859375 1.1875 -2.109375 2.109375q-1.25 0.90625 -2.78125 1.4375q-1.53125 0.53125 -3.265625 0.53125zm2.109375 -6.484375q1.78125 0 3.078125 -0.8125q1.296875 -0.828125 2.015625 -2.328125q0.71875 -1.515625 0.71875 -3.578125q0 -2.0625 -0.71875 -3.578125q-0.71875 -1.515625 -2.015625 -2.34375q-1.296875 -0.84375 -3.078125 -0.84375q-1.71875 0 -3.0 0.84375q-1.265625 0.828125 -1.984375 2.34375q-0.71875 1.515625 -0.71875 3.578125q0 2.0625 0.71875 3.578125q0.71875 1.5 1.984375 2.328125q1.28125 0.8125 3.0 0.8125zm31.788315 17.09375q-3.125 0 -6.21875 -0.921875q-3.09375 -0.90625 -5.015625 -2.34375l2.6875 -5.375q1.0 0.671875 2.21875 1.171875q1.234375 0.5 2.578125 0.78125q1.34375 0.296875 2.734375 0.296875q2.453125 0 3.984375 -0.71875q1.53125 -0.71875 2.296875 -2.1875q0.78125 -1.46875 0.78125 -3.671875l0 -4.265625l1.484375 0.234375q-0.34375 1.578125 -1.671875 2.875q-1.3125 1.296875 -3.234375 2.09375q-1.90625 0.796875 -4.078125 0.796875q-3.453125 0 -6.171875 -1.609375q-2.703125 -1.609375 -4.265625 -4.46875q-1.5625 -2.859375 -1.5625 -6.59375q0 -3.84375 1.53125 -6.796875q1.546875 -2.953125 4.234375 -4.65625q2.6875 -1.703125 6.046875 -1.703125q1.4375 0 2.75 0.34375q1.328125 0.328125 2.453125 0.890625q1.140625 0.546875 2.015625 1.296875q0.890625 0.734375 1.4375 1.59375q0.5625 0.859375 0.75 1.78125l-1.578125 0.375l0.28125 -5.75l7.296875 0l0 23.421875q0 3.125 -0.9375 5.546875q-0.9375 2.421875 -2.734375 4.125q-1.796875 1.703125 -4.34375 2.5625q-2.546875 0.875 -5.75 0.875zm0.1875 -17.1875q1.875 0 3.234375 -0.84375q1.375 -0.84375 2.109375 -2.328125q0.75 -1.484375 0.75 -3.5q0 -2.015625 -0.75 -3.53125q-0.734375 -1.515625 -2.109375 -2.34375q-1.359375 -0.84375 -3.234375 -0.84375q-1.828125 0 -3.171875 0.84375q-1.34375 0.828125 -2.09375 2.34375q-0.734375 1.515625 -0.734375 3.53125q0 2.015625 0.734375 3.5q0.75 1.484375 2.09375 2.328125q1.34375 0.84375 3.171875 0.84375zm32.39331 6.625q-4.21875 0 -7.34375 -1.703125q-3.109375 -1.703125 -4.84375 -4.65625q-1.734375 -2.953125 -1.734375 -6.75q0 -2.921875 0.953125 -5.375q0.96875 -2.453125 2.703125 -4.25q1.734375 -1.796875 4.109375 -2.78125q2.375 -0.984375 5.203125 -0.984375q2.6875 0 4.921875 0.96875q2.234375 0.953125 3.859375 2.6875q1.640625 1.71875 2.5 4.078125q0.859375 2.34375 0.765625 5.125l-0.046875 2.0625l-20.3125 0l-1.09375 -4.3125l15.171875 0l-0.828125 0.90625l0 -0.953125q-0.09375 -1.203125 -0.75 -2.140625q-0.640625 -0.9375 -1.703125 -1.453125q-1.046875 -0.53125 -2.390625 -0.53125q-1.875 0 -3.203125 0.75q-1.3125 0.734375 -1.984375 2.15625q-0.671875 1.40625 -0.671875 3.46875q0 2.109375 0.890625 3.671875q0.890625 1.5625 2.59375 2.4375q1.703125 0.859375 4.0625 0.859375q1.625 0 2.890625 -0.484375q1.28125 -0.484375 2.765625 -1.640625l3.59375 5.09375q-1.484375 1.296875 -3.171875 2.109375q-1.671875 0.8125 -3.421875 1.21875q-1.75 0.421875 -3.484375 0.421875zm36.909943 -0.484375l-8.390625 -25.484375l8.109375 0l4.703125 16.5625l-1.0 -0.203125l5.265625 -12.859375l4.515625 0l5.578125 12.90625l-1.109375 0.109375l4.703125 -16.515625l8.109375 0l-8.6875 25.484375l-5.65625 0l-5.53125 -13.6875l0.578125 0.109375l-5.515625 13.578125l-5.671875 0zm34.907074 0l0 -25.484375l7.671875 0l0 25.484375l-7.671875 0zm3.84375 -30.53125q-2.171875 0 -3.390625 -1.03125q-1.21875 -1.03125 -1.21875 -2.953125q0 -1.71875 1.234375 -2.828125q1.25 -1.109375 3.375 -1.109375q2.15625 0 3.34375 1.03125q1.203125 1.03125 1.203125 2.90625q0 1.78125 -1.21875 2.890625q-1.21875 1.09375 -3.328125 1.09375zm11.077637 30.53125l0 -35.515625l7.6875 0l0 35.515625l-7.6875 0zm14.592041 0l0 -35.515625l7.6875 0l0 35.515625l-7.6875 0z" fill-rule="nonzero"/><path fill="#000000" d="m164.48558 374.5356q-3.21875 0 -5.734375 -1.703125q-2.515625 -1.703125 -4.015625 -4.703125q-1.484375 -3.0 -1.484375 -6.796875q0 -3.890625 1.484375 -6.859375q1.5 -2.984375 4.09375 -4.6875q2.59375 -1.703125 5.90625 -1.703125q1.8125 0 3.328125 0.53125q1.515625 0.53125 2.65625 1.46875q1.15625 0.921875 1.96875 2.15625q0.828125 1.21875 1.203125 2.609375l-1.578125 -0.1875l0 -6.046875l7.625 0l0 25.484375l-7.765625 0l0 -6.140625l1.71875 -0.046875q-0.375 1.34375 -1.25 2.546875q-0.859375 1.1875 -2.109375 2.109375q-1.25 0.90625 -2.78125 1.4375q-1.53125 0.53125 -3.265625 0.53125zm2.109375 -6.484375q1.78125 0 3.078125 -0.8125q1.296875 -0.828125 2.015625 -2.328125q0.71875 -1.515625 0.71875 -3.578125q0 -2.0625 -0.71875 -3.578125q-0.71875 -1.515625 -2.015625 -2.34375q-1.296875 -0.84375 -3.078125 -0.84375q-1.71875 0 -3.0 0.84375q-1.265625 0.828125 -1.984375 2.34375q-0.71875 1.515625 -0.71875 3.578125q0 2.0625 0.71875 3.578125q0.71875 1.5 1.984375 2.328125q1.28125 0.8125 3.0 0.8125zm20.116455 16.609375l0 -36.046875l7.296875 0l0.28125 5.703125l-1.4375 -0.421875q0.34375 -1.59375 1.640625 -2.890625q1.296875 -1.296875 3.28125 -2.078125q2.0 -0.796875 4.203125 -0.796875q3.265625 0 5.8125 1.703125q2.546875 1.703125 4.0 4.65625q1.46875 2.953125 1.46875 6.84375q0 3.84375 -1.46875 6.828125q-1.453125 2.96875 -4.03125 4.671875q-2.5625 1.703125 -5.875 1.703125q-2.15625 0 -4.125 -0.8125q-1.96875 -0.828125 -3.3125 -2.21875q-1.34375 -1.390625 -1.78125 -3.015625l1.78125 -0.671875l0 16.84375l-7.734375 0zm13.296875 -16.609375q1.734375 0 3.03125 -0.84375q1.296875 -0.84375 2.015625 -2.328125q0.71875 -1.484375 0.71875 -3.546875q0 -2.015625 -0.71875 -3.53125q-0.71875 -1.515625 -2.0 -2.34375q-1.265625 -0.84375 -3.046875 -0.84375q-1.78125 0 -3.078125 0.8125q-1.28125 0.8125 -2.015625 2.359375q-0.71875 1.53125 -0.71875 3.546875q0 2.0625 0.71875 3.546875q0.734375 1.484375 2.015625 2.328125q1.296875 0.84375 3.078125 0.84375zm18.335175 16.609375l0 -36.046875l7.296875 0l0.28125 5.703125l-1.4375 -0.421875q0.34375 -1.59375 1.640625 -2.890625q1.296875 -1.296875 3.28125 -2.078125q2.0 -0.796875 4.203125 -0.796875q3.265625 0 5.8125 1.703125q2.546875 1.703125 4.0 4.65625q1.46875 2.953125 1.46875 6.84375q0 3.84375 -1.46875 6.828125q-1.453125 2.96875 -4.03125 4.671875q-2.5625 1.703125 -5.875 1.703125q-2.15625 0 -4.125 -0.8125q-1.96875 -0.828125 -3.3125 -2.21875q-1.34375 -1.390625 -1.78125 -3.015625l1.78125 -0.671875l0 16.84375l-7.734375 0zm13.296875 -16.609375q1.734375 0 3.03125 -0.84375q1.296875 -0.84375 2.015625 -2.328125q0.71875 -1.484375 0.71875 -3.546875q0 -2.015625 -0.71875 -3.53125q-0.71875 -1.515625 -2.0 -2.34375q-1.265625 -0.84375 -3.046875 -0.84375q-1.78125 0 -3.078125 0.8125q-1.28125 0.8125 -2.015625 2.359375q-0.71875 1.53125 -0.71875 3.546875q0 2.0625 0.71875 3.546875q0.734375 1.484375 2.015625 2.328125q1.296875 0.84375 3.078125 0.84375zm30.475815 6.53125q-4.21875 0 -7.3437347 -1.703125q-3.109375 -1.703125 -4.84375 -4.65625q-1.734375 -2.953125 -1.734375 -6.75q0 -2.921875 0.953125 -5.375q0.96875 -2.453125 2.703125 -4.25q1.734375 -1.796875 4.109375 -2.78125q2.3749847 -0.984375 5.2031097 -0.984375q2.6875 0 4.921875 0.96875q2.234375 0.953125 3.859375 2.6875q1.640625 1.71875 2.5 4.078125q0.859375 2.34375 0.765625 5.125l-0.046875 2.0625l-20.312485 0l-1.09375 -4.3125l15.17186 0l-0.828125 0.90625l0 -0.953125q-0.09375 -1.203125 -0.75 -2.140625q-0.640625 -0.9375 -1.703125 -1.453125q-1.046875 -0.53125 -2.390625 -0.53125q-1.875 0 -3.203125 0.75q-1.3125 0.734375 -1.984375 2.15625q-0.67185974 1.40625 -0.67185974 3.46875q0 2.109375 0.89060974 3.671875q0.890625 1.5625 2.59375 2.4375q1.703125 0.859375 4.0625 0.859375q1.625 0 2.890625 -0.484375q1.28125 -0.484375 2.765625 -1.640625l3.59375 5.09375q-1.484375 1.296875 -3.171875 2.109375q-1.671875 0.8125 -3.421875 1.21875q-1.75 0.421875 -3.484375 0.421875zm25.393677 -0.046875q-3.21875 0 -5.734375 -1.703125q-2.515625 -1.703125 -4.015625 -4.703125q-1.484375 -3.0 -1.484375 -6.796875q0 -3.890625 1.484375 -6.859375q1.5 -2.984375 4.09375 -4.6875q2.59375 -1.703125 5.90625 -1.703125q1.8125 0 3.328125 0.53125q1.515625 0.53125 2.65625 1.46875q1.15625 0.921875 1.96875 2.15625q0.828125 1.21875 1.203125 2.609375l-1.578125 -0.1875l0 -6.046875l7.625 0l0 25.484375l-7.765625 0l0 -6.140625l1.71875 -0.046875q-0.375 1.34375 -1.25 2.546875q-0.859375 1.1875 -2.109375 2.109375q-1.25 0.90625 -2.78125 1.4375q-1.53125 0.53125 -3.265625 0.53125zm2.109375 -6.484375q1.78125 0 3.078125 -0.8125q1.296875 -0.828125 2.015625 -2.328125q0.71875 -1.515625 0.71875 -3.578125q0 -2.0625 -0.71875 -3.578125q-0.71875 -1.515625 -2.015625 -2.34375q-1.296875 -0.84375 -3.078125 -0.84375q-1.71875 0 -3.0 0.84375q-1.265625 0.828125 -1.984375 2.34375q-0.71875 1.515625 -0.71875 3.578125q0 2.0625 0.71875 3.578125q0.71875 1.5 1.984375 2.328125q1.28125 0.8125 3.0 0.8125zm20.116425 6.046875l0 -25.484375l7.296875 0l0.34375 8.296875l-1.453125 -1.578125q0.578125 -2.0625 1.890625 -3.6875q1.328125 -1.640625 3.109375 -2.59375q1.78125 -0.96875 3.796875 -0.96875q0.859375 0 1.59375 0.140625q0.75 0.140625 1.375 0.34375l-2.109375 8.484375q-0.53125 -0.328125 -1.421875 -0.546875q-0.890625 -0.21875 -1.84375 -0.21875q-1.0625 0 -1.96875 0.359375q-0.90625 0.359375 -1.53125 1.03125q-0.625 0.671875 -0.984375 1.59375q-0.359375 0.90625 -0.359375 2.0625l0 12.765625l-7.734375 0z" fill-rule="nonzero"/></g></svg>